<svg width="38" height="37" viewBox="0 0 38 37" fill="none" xmlns="http://www.w3.org/2000/svg">
<path fill-rule="evenodd" clip-rule="evenodd" d="M18.9999 0.399994C8.7079 0.399994 0.399902 8.70799 0.399902 19C0.399902 27.184 5.7319 34.128 13.1719 36.608C14.1639 36.732 14.4119 36.236 14.4119 35.74V32.516C9.2039 33.632 8.0879 30.036 8.0879 30.036C7.2199 27.928 5.9799 27.308 5.9799 27.308C4.2439 26.192 6.1039 26.192 6.1039 26.192C7.9639 26.316 8.9559 28.052 8.9559 28.052C10.5679 30.904 13.2959 30.036 14.4119 29.54C14.5359 28.3 15.0319 27.556 15.6519 27.06C11.5599 26.564 7.2199 24.952 7.2199 17.884C7.2199 15.9 7.9639 14.164 9.0799 12.924C8.8319 12.428 8.2119 10.568 9.2039 7.96399C9.2039 7.96399 10.8159 7.468 14.2879 9.824C15.7759 9.45199 17.3879 9.204 18.9999 9.204C20.6119 9.204 22.2239 9.45199 23.7119 9.824C27.3079 7.468 28.7959 7.96399 28.7959 7.96399C29.7879 10.568 29.1679 12.428 28.9199 12.924C30.1599 14.164 30.7799 15.9 30.7799 17.884C30.7799 25.076 26.4399 26.564 22.3479 27.06C22.9679 27.68 23.5879 28.796 23.5879 30.532V35.616C23.5879 36.112 23.9599 36.732 24.8279 36.484C32.2679 34.004 37.4759 27.06 37.4759 18.876C37.5999 8.70799 29.2919 0.399994 18.9999 0.399994Z" fill="#181616"/>
</svg>
