<svg width="38" height="39" viewBox="0 0 38 39" fill="none" xmlns="http://www.w3.org/2000/svg">
<path d="M35.72 19.8958C35.72 18.6608 35.6092 17.4733 35.4033 16.3333H19V23.0783H28.3733C27.9617 25.2475 26.7267 27.0842 24.8742 28.3192V32.705H30.5267C33.82 29.665 35.72 25.2 35.72 19.8958Z" fill="black"/>
<path d="M19 36.9166C23.7025 36.9166 27.645 35.365 30.5267 32.705L24.8742 28.3191C23.3225 29.3641 21.3433 29.9975 19 29.9975C14.4717 29.9975 10.6242 26.9416 9.24666 22.825H3.45166V27.3216C6.31749 33.0058 12.1917 36.9166 19 36.9166Z" fill="black"/>
<path d="M9.24671 22.8092C8.89837 21.7642 8.69254 20.6559 8.69254 19.5C8.69254 18.3442 8.89837 17.2358 9.24671 16.1908V11.6942H3.45171C2.26421 14.0375 1.58337 16.6817 1.58337 19.5C1.58337 22.3183 2.26421 24.9625 3.45171 27.3059L7.96421 23.7908L9.24671 22.8092Z" fill="black"/>
<path d="M19 9.01834C21.565 9.01834 23.845 9.90501 25.6658 11.615L30.6533 6.62751C27.6292 3.80918 23.7025 2.08334 19 2.08334C12.1917 2.08334 6.31749 5.99418 3.45166 11.6942L9.24666 16.1908C10.6242 12.0742 14.4717 9.01834 19 9.01834Z" fill="black"/>
</svg>
